name D:\school\WTK\thesis\model\3dpredictsim\Results\test_WL_v2\Fal_s1_bCst_PF_tanh_ig24.mot
datacolumns 128
datarows 4
range 1.40884438 1.45110971
endheader
time	pelvis_tilt	pelvis_list	pelvis_rotation	pelvis_tx	pelvis_ty	pelvis_tz	hip_flexion_l	hip_adduction_l	hip_rotation_l	hip_flexion_r	hip_adduction_r	hip_rotation_r	knee_angle_l	knee_angle_r	ankle_angle_l	ankle_angle_r	subtalar_angle_l	subtalar_angle_r	tmt_angle_l	tmt_angle_r	mtp_angle_l	mtp_angle_r	lumbar_extension	lumbar_bending	lumbar_rotation	arm_flex_l	arm_add_l	arm_rot_l	arm_flex_r	arm_add_r	arm_rot_r	elbow_flex_l	elbow_flex_r	pro_sup_l	pro_sup_r	glut_med1_l/activation	glut_med2_l/activation	glut_med3_l/activation	glut_min1_l/activation	glut_min2_l/activation	glut_min3_l/activation	semimem_l/activation	semiten_l/activation	bifemlh_l/activation	bifemsh_l/activation	sar_l/activation	add_long_l/activation	add_brev_l/activation	add_mag1_l/activation	add_mag2_l/activation	add_mag3_l/activation	tfl_l/activation	pect_l/activation	grac_l/activation	glut_max1_l/activation	glut_max2_l/activation	glut_max3_l/activation	iliacus_l/activation	psoas_l/activation	quad_fem_l/activation	gem_l/activation	peri_l/activation	rect_fem_l/activation	vas_med_l/activation	vas_int_l/activation	vas_lat_l/activation	med_gas_l/activation	lat_gas_l/activation	soleus_l/activation	tib_post_l/activation	flex_dig_l/activation	flex_hal_l/activation	tib_ant_l/activation	per_brev_l/activation	per_long_l/activation	per_tert_l/activation	ext_dig_l/activation	ext_hal_l/activation	ercspn_l/activation	intobl_l/activation	extobl_l/activation	glut_med1_r/activation	glut_med2_r/activation	glut_med3_r/activation	glut_min1_r/activation	glut_min2_r/activation	glut_min3_r/activation	semimem_r/activation	semiten_r/activation	bifemlh_r/activation	bifemsh_r/activation	sar_r/activation	add_long_r/activation	add_brev_r/activation	add_mag1_r/activation	add_mag2_r/activation	add_mag3_r/activation	tfl_r/activation	pect_r/activation	grac_r/activation	glut_max1_r/activation	glut_max2_r/activation	glut_max3_r/activation	iliacus_r/activation	psoas_r/activation	quad_fem_r/activation	gem_r/activation	peri_r/activation	rect_fem_r/activation	vas_med_r/activation	vas_int_r/activation	vas_lat_r/activation	med_gas_r/activation	lat_gas_r/activation	soleus_r/activation	tib_post_r/activation	flex_dig_r/activation	flex_hal_r/activation	tib_ant_r/activation	per_brev_r/activation	per_long_r/activation	per_tert_r/activation	ext_dig_r/activation	ext_hal_r/activation	ercspn_r/activation	intobl_r/activation	extobl_r/activation	
          1.40884438	         -2.35781297	          1.82772883	         -7.06559709	          1.68258354	          0.87366531	          0.02747048	         22.06936420	          5.63863778	          1.38563322	         -1.02291358	         -4.53579754	         -8.05118537	        -17.08495843	        -49.64322880	         -2.47355726	        -13.73431005	         -8.13720406	          6.78411451	          1.99473915	         -6.56296434	         -6.97522587	         15.42782602	        -15.84169063	         -4.27326364	         -7.84822589	         18.55056324	        -35.80587392	         -3.00453887	          7.85841359	        -25.97835341	         -4.16514452	         57.19998906	         67.03993638	         86.51662706	         86.51662706	          0.68486773	          0.68513031	          0.64609100	          0.60618699	          0.61025236	          0.61328116	          0.77795725	          0.76163330	          0.81184123	          0.60097795	          0.49572101	          0.48502997	          0.56367902	          0.55772210	          0.57236609	          0.70472037	          0.48383277	          0.55165664	          0.59952915	          0.65080122	          0.72127203	          0.73205787	          0.26488410	          0.27474190	          0.53340236	          0.55343712	          0.61112874	          0.21530257	          0.54462497	          0.54425947	          0.53395076	          0.07077723	          0.11431055	          0.05674687	          0.15324635	          0.46191317	          0.40377642	          0.92735027	          0.63055778	          0.58768201	          0.74668474	          0.89487755	          0.76914727	          0.89442630	          0.08499381	          0.12285591	          0.79612179	          0.53220866	          0.30421033	          0.67717599	          0.62300591	          0.52788854	          0.52160349	          0.83982873	          0.62004828	          0.79487376	          0.53700730	          0.49180637	          0.59543817	          0.59602236	          0.61159973	          0.71713076	          0.49094635	          0.55828948	          0.65763914	          0.54249639	          0.58054042	          0.66209349	          0.40014496	          0.38356162	          0.32782794	          0.46379432	          0.53064574	          0.15051947	          0.23024345	          0.22076035	          0.18100696	          0.35753488	          0.47256855	          0.16811269	          0.53352379	          0.52385194	          0.52528578	          0.82595306	          0.43532291	          0.30588614	          0.64462202	          0.76927134	          0.67791905	          0.95349615	          0.62320530	          0.14207342	
          1.42293282	         -2.15398296	          1.87296220	         -6.60002918	          1.69669552	          0.87696688	          0.02738038	         20.53140945	          6.02436906	          2.25565180	          1.53694019	         -4.39162206	         -6.34643871	        -16.54104013	        -52.40523884	         -1.84025982	        -11.47282946	         -8.11674104	          7.62471332	          2.08083306	         -7.62627776	         -9.42372328	         17.47632841	        -15.60190110	         -3.76876941	         -8.39678748	         15.64650353	        -36.23847420	         -3.65576433	          5.85562207	        -25.22536302	         -4.96843799	         55.29348831	         65.23174430	         86.51662706	         86.51662706	          0.65190352	          0.69777898	          0.64809335	          0.61007302	          0.61834616	          0.62119767	          0.77277661	          0.76244759	          0.81130865	          0.62591842	          0.50168521	          0.47422267	          0.54874779	          0.55283485	          0.56633887	          0.69057860	          0.48225935	          0.55106234	          0.59657546	          0.64541754	          0.70524622	          0.70744197	          0.26172197	          0.27066490	          0.51272738	          0.55177741	          0.63737986	          0.20767434	          0.52761854	          0.52856755	          0.51606101	          0.07153172	          0.11541987	          0.05686038	          0.13589514	          0.45884134	          0.40243714	          0.92486874	          0.65610999	          0.64237680	          0.74832300	          0.89578669	          0.76778879	          0.90363827	          0.08217846	          0.11129207	          0.75768181	          0.60509708	          0.46874563	          0.64783853	          0.61390495	          0.56082155	          0.52163679	          0.84312582	          0.62416685	          0.77192409	          0.51862699	          0.44390127	          0.57792706	          0.60175207	          0.61627399	          0.72842018	          0.49063094	          0.54596075	          0.65248843	          0.55753969	          0.61153540	          0.71106848	          0.34428308	          0.33186490	          0.40030340	          0.49529729	          0.55433502	          0.14742072	          0.26813241	          0.25589711	          0.21218789	          0.31372576	          0.44205178	          0.13860229	          0.61715222	          0.53219134	          0.53406864	          0.88057061	          0.37305104	          0.25755680	          0.62053022	          0.76680796	          0.70325757	          0.95958797	          0.52213993	          0.13823098	
          1.43702126	         -1.78147482	          2.00476962	         -6.07975486	          1.71174817	          0.88024784	          0.02767990	         18.73066441	          6.46557464	          3.08212043	          3.36980100	         -4.07833253	         -4.53540570	        -15.95212566	        -54.23141354	         -1.30782085	         -9.57776131	         -8.04552864	          8.61267746	          2.75326121	         -8.38266243	        -13.35397845	         19.08036043	        -15.12597530	         -3.42287769	         -9.03832821	         12.37750487	        -36.61704794	         -4.41571641	          3.31501294	        -24.26023626	         -5.50666101	         52.94161156	         62.55224005	         86.51662706	         86.51662706	          0.57863540	          0.70822833	          0.67799042	          0.59369789	          0.61406246	          0.62685500	          0.76286157	          0.76052735	          0.81213819	          0.65067080	          0.51082180	          0.45996892	          0.53076459	          0.54884632	          0.56056679	          0.67777686	          0.47215416	          0.54925908	          0.59460905	          0.64929473	          0.70553940	          0.69875272	          0.25661393	          0.26499333	          0.51915536	          0.56676064	          0.67968218	          0.20209402	          0.51333921	          0.51551270	          0.50137462	          0.07313390	          0.11784728	          0.05721237	          0.12330654	          0.45604956	          0.40162777	          0.91885634	          0.69194819	          0.69935833	          0.75184371	          0.89604424	          0.76307391	          0.90464786	          0.08434748	          0.10135804	          0.75210342	          0.67173156	          0.59975454	          0.63260591	          0.61773407	          0.59814797	          0.52092571	          0.83646282	          0.62438536	          0.72950983	          0.50222075	          0.39572384	          0.54111370	          0.58461858	          0.60726348	          0.70342129	          0.50699058	          0.52950713	          0.63169630	          0.57167760	          0.63603715	          0.70950191	          0.29882312	          0.29019889	          0.43811417	          0.51625959	          0.57800820	          0.14830846	          0.31054476	          0.29794914	          0.25166005	          0.27806583	          0.41580166	          0.11650803	          0.63512759	          0.53527169	          0.53878911	          0.89857498	          0.32447191	          0.22084675	          0.60007563	          0.75149888	          0.71063907	          0.96353368	          0.43208611	          0.14211714	
          1.45110971	         -1.23973201	          2.26795828	         -5.51187497	          1.72807568	          0.88338386	          0.02823816	         16.67821878	          7.00940212	          3.84183638	          4.36595502	         -3.74520065	         -2.79984941	        -15.36886984	        -55.18622407	         -0.84480641	         -7.36894091	         -7.90734502	          9.61278217	          3.82473497	         -8.05543085	        -17.79701901	         18.20942581	        -14.36233785	         -3.27204185	         -9.68510197	          8.84782129	        -36.85952159	         -5.07228486	          0.24859115	        -23.11125578	         -5.84192879	         50.19671372	         58.99023912	         86.51662706	         86.51662706	          0.49692457	          0.71325277	          0.73235562	          0.55456770	          0.59275949	          0.62835515	          0.74250420	          0.74918334	          0.80639487	          0.64847029	          0.51349090	          0.44552114	          0.51947683	          0.54835256	          0.55819924	          0.67024506	          0.45626718	          0.54625932	          0.59491714	          0.66680708	          0.73174441	          0.72172358	          0.24398068	          0.25332788	          0.58124420	          0.59936716	          0.72534126	          0.20136733	          0.51502781	          0.51740887	          0.50337990	          0.07501573	          0.12090117	          0.05785741	          0.11529385	          0.45388149	          0.40163519	          0.90940482	          0.72695343	          0.74381711	          0.75570784	          0.89486119	          0.75514760	          0.89605682	          0.10156897	          0.09386266	          0.76877858	          0.72896352	          0.68509013	          0.63619880	          0.63777700	          0.64243447	          0.52022848	          0.80527350	          0.61931517	          0.66618947	          0.49239279	          0.34995794	          0.49200498	          0.55054512	          0.58580182	          0.64155229	          0.54124089	          0.50942939	          0.59862393	          0.58336569	          0.64976151	          0.64960752	          0.26304001	          0.25778220	          0.44033622	          0.52895052	          0.60354968	          0.15758351	          0.35023364	          0.33948334	          0.29579465	          0.24870206	          0.39324562	          0.10098166	          0.60078278	          0.53002772	          0.53509478	          0.87927182	          0.29582744	          0.20366221	          0.59188117	          0.72150542	          0.70055415	          0.96284740	          0.35600109	          0.15707342	
